<svg xmlns="http://www.w3.org/2000/svg" width="632.503" height="612.088" viewBox="0 0 632.503 612.088">
  <g id="Group_262" data-name="Group 262" transform="translate(943.782 -520.061)">
    <g id="Group_260" data-name="Group 260" transform="translate(-812.714 709.146)">
      <path id="Path_9564" data-name="Path 9564" d="M-664.359,807.351a4.265,4.265,0,0,0,.377-5.649l-26.135-35.3c-.089-.116-.178-.227-.276-.335a3.731,3.731,0,0,0-2.619-1.269,3.268,3.268,0,0,0-2.564,1.1l-54.6,60.22a3.789,3.789,0,0,0-.564.822,4.511,4.511,0,0,0,1.512,5.657l41.97,27.725-.57-21.971-.215-7.941a3.874,3.874,0,0,1,2.107-3.673l40.757-18.85a3.27,3.27,0,0,0,.825-.534m77.344,18.112a4.047,4.047,0,0,1-1.708,5.3l-40.059,18.494-28.677,13.24a3.82,3.82,0,0,0-2.107,3.646l.826,30.5a3.776,3.776,0,0,1-2.063,3.581l-43.132,19.916a3.273,3.273,0,0,1-1.467.3,3.876,3.876,0,0,1-2.1-.779l-1.91-1.258-77.866-51.433-39.167-25.891a4.1,4.1,0,0,1-.776-.67,4.328,4.328,0,0,1-.144-5.691L-723.917,720.7l29.988-33.083a3.471,3.471,0,0,1,2.561-1.074,3.839,3.839,0,0,1,2.9,1.578l28.491,38.547L-616.5,785.42l28.97,39.146A4.457,4.457,0,0,1-587.016,825.464Z" transform="translate(828.367 -686.537)" fill="none" stroke="#e40ff7" stroke-miterlimit="10" stroke-width="1"/>
    </g>
    <path id="Path_9565" data-name="Path 9565" d="M-660.712,808.054a4.432,4.432,0,0,0,.392-5.871l-27.164-36.69c-.091-.12-.185-.235-.286-.348a3.878,3.878,0,0,0-2.722-1.319,3.393,3.393,0,0,0-2.664,1.144l-56.752,62.588a3.888,3.888,0,0,0-.586.854,4.687,4.687,0,0,0,1.571,5.879l43.621,28.816-.593-22.835-.223-8.254a4.026,4.026,0,0,1,2.188-3.818l42.36-19.592a3.385,3.385,0,0,0,.858-.556m80.385,18.825a4.206,4.206,0,0,1-1.775,5.513l-41.633,19.221-29.805,13.762a3.97,3.97,0,0,0-2.191,3.789l.859,31.7a3.922,3.922,0,0,1-2.144,3.722l-44.828,20.7a3.4,3.4,0,0,1-1.525.315,4,4,0,0,1-2.186-.81l-1.985-1.307L-788.47,870.03l-40.706-26.909a4.313,4.313,0,0,1-.808-.7,4.5,4.5,0,0,1-.15-5.914l107.523-118.519,31.168-34.383a3.606,3.606,0,0,1,2.661-1.117,3.991,3.991,0,0,1,3.016,1.641l29.61,40.063,45.189,61.065,30.109,40.686A4.557,4.557,0,0,1-580.327,826.878Z" transform="translate(15.272 22.058)" fill="none" stroke="#df13f6" stroke-miterlimit="10" stroke-width="1"/>
    <path id="Path_9566" data-name="Path 9566" d="M-657.065,808.756a4.6,4.6,0,0,0,.407-6.092l-28.192-38.078c-.094-.125-.192-.244-.3-.361a4.027,4.027,0,0,0-2.826-1.369,3.524,3.524,0,0,0-2.766,1.187L-749.637,829a4.075,4.075,0,0,0-.608.886,4.863,4.863,0,0,0,1.632,6.1l45.27,29.906-.615-23.7-.233-8.566a4.181,4.181,0,0,1,2.272-3.962l43.964-20.334a3.491,3.491,0,0,0,.89-.576m83.427,19.537a4.367,4.367,0,0,1-1.842,5.722l-43.209,19.949-30.932,14.282a4.12,4.12,0,0,0-2.274,3.932l.892,32.9a4.071,4.071,0,0,1-2.226,3.862l-46.525,21.484a3.534,3.534,0,0,1-1.583.326,4.16,4.16,0,0,1-2.269-.841l-2.06-1.357-83.99-55.478L-831.9,845.152a4.518,4.518,0,0,1-.837-.724,4.669,4.669,0,0,1-.156-6.138l111.59-123L-688.96,679.6a3.746,3.746,0,0,1,2.762-1.16,4.149,4.149,0,0,1,3.129,1.7l30.731,41.58,46.9,63.375,31.248,42.225A4.769,4.769,0,0,1-573.638,828.294Z" transform="translate(14.89 21.506)" fill="none" stroke="#db17f6" stroke-miterlimit="10" stroke-width="1"/>
    <path id="Path_9567" data-name="Path 9567" d="M-653.419,809.46a4.766,4.766,0,0,0,.423-6.315l-29.219-39.467c-.1-.128-.2-.253-.309-.374a4.167,4.167,0,0,0-2.928-1.419,3.654,3.654,0,0,0-2.867,1.231l-61.047,67.324a4.205,4.205,0,0,0-.63.919,5.039,5.039,0,0,0,1.691,6.323l46.921,31-.637-24.563-.241-8.878a4.328,4.328,0,0,1,2.355-4.106l45.566-21.076a3.619,3.619,0,0,0,.922-.6m86.47,20.25a4.526,4.526,0,0,1-1.909,5.93l-44.785,20.676-32.061,14.8a4.271,4.271,0,0,0-2.355,4.077l.924,34.1a4.22,4.22,0,0,1-2.307,4l-48.22,22.265a3.649,3.649,0,0,1-1.641.339,4.308,4.308,0,0,1-2.352-.871l-2.135-1.406-87.054-57.5-43.788-28.945a4.644,4.644,0,0,1-.868-.75,4.839,4.839,0,0,1-.161-6.362L-720,712.581l33.526-36.985a3.882,3.882,0,0,1,2.862-1.2,4.3,4.3,0,0,1,3.244,1.766l31.852,43.1,48.607,65.686,32.387,43.764A4.949,4.949,0,0,1-566.949,829.71Z" transform="translate(14.508 20.955)" fill="none" stroke="#d61cf5" stroke-miterlimit="10" stroke-width="1"/>
    <path id="Path_9568" data-name="Path 9568" d="M-649.772,810.163a4.933,4.933,0,0,0,.437-6.537l-30.247-40.854c-.1-.134-.206-.264-.319-.389a4.321,4.321,0,0,0-3.031-1.469,3.78,3.78,0,0,0-2.967,1.275l-63.194,69.692a4.372,4.372,0,0,0-.653.951A5.221,5.221,0,0,0-748,839.379l48.572,32.087-.66-25.427-.249-9.191a4.483,4.483,0,0,1,2.437-4.251l47.169-21.817a3.694,3.694,0,0,0,.954-.618m89.511,20.962a4.685,4.685,0,0,1-1.976,6.139l-46.36,21.4-33.189,15.324a4.42,4.42,0,0,0-2.438,4.219l.957,35.3a4.368,4.368,0,0,1-2.388,4.145l-49.916,23.049a3.786,3.786,0,0,1-1.7.35,4.468,4.468,0,0,1-2.435-.9l-2.21-1.454-90.116-59.524-45.327-29.964a4.779,4.779,0,0,1-.9-.776,5.008,5.008,0,0,1-.167-6.585L-718.7,709.877l34.706-38.286a4.014,4.014,0,0,1,2.963-1.244,4.449,4.449,0,0,1,3.358,1.827l32.972,44.611,50.319,68,33.525,45.3A5.073,5.073,0,0,1-560.26,831.125Z" transform="translate(14.126 20.403)" fill="none" stroke="#d220f5" stroke-miterlimit="10" stroke-width="1"/>
    <path id="Path_9569" data-name="Path 9569" d="M-646.124,810.866a5.1,5.1,0,0,0,.452-6.759l-31.274-42.242c-.106-.139-.214-.273-.331-.4a4.459,4.459,0,0,0-3.134-1.519,3.913,3.913,0,0,0-3.069,1.317l-65.342,72.061a4.539,4.539,0,0,0-.675.984,5.4,5.4,0,0,0,1.811,6.768l50.222,33.178-.683-26.292-.257-9.5a4.635,4.635,0,0,1,2.52-4.4l48.772-22.557a3.882,3.882,0,0,0,.986-.639m92.553,21.673a4.844,4.844,0,0,1-2.044,6.348l-47.935,22.13-34.316,15.845a4.57,4.57,0,0,0-2.521,4.363l.989,36.5a4.516,4.516,0,0,1-2.469,4.285l-51.613,23.833a3.911,3.911,0,0,1-1.757.361,4.615,4.615,0,0,1-2.517-.933l-2.285-1.5-93.179-61.547-46.868-30.982a4.982,4.982,0,0,1-.929-.8,5.181,5.181,0,0,1-.173-6.809l123.8-136.458,35.885-39.587a4.151,4.151,0,0,1,3.064-1.286,4.6,4.6,0,0,1,3.471,1.89l34.092,46.127,52.027,70.307,34.666,46.844A5.276,5.276,0,0,1-553.571,832.54Z" transform="translate(13.744 19.852)" fill="none" stroke="#cd24f4" stroke-miterlimit="10" stroke-width="1"/>
    <path id="Path_9570" data-name="Path 9570" d="M-642.477,811.569a5.27,5.27,0,0,0,.467-6.981l-32.3-43.631c-.109-.143-.22-.281-.341-.415a4.609,4.609,0,0,0-3.237-1.568,4.034,4.034,0,0,0-3.169,1.36l-67.489,74.429a4.656,4.656,0,0,0-.7,1.016,5.575,5.575,0,0,0,1.87,6.991l51.873,34.268-.706-27.156-.266-9.816a4.789,4.789,0,0,1,2.6-4.539l50.374-23.3a4.008,4.008,0,0,0,1.019-.66m95.595,22.387a5,5,0,0,1-2.111,6.556L-598.5,863.37l-35.444,16.365a4.719,4.719,0,0,0-2.6,4.505l1.021,37.7a4.665,4.665,0,0,1-2.551,4.426l-53.309,24.616a4.049,4.049,0,0,1-1.813.375,4.773,4.773,0,0,1-2.6-.964l-2.36-1.554-96.24-63.569-48.409-32a5.118,5.118,0,0,1-.96-.829,5.349,5.349,0,0,1-.178-7.033l127.864-140.941,37.065-40.889a4.29,4.29,0,0,1,3.166-1.328,4.75,4.75,0,0,1,3.585,1.951l35.214,47.644,53.737,72.618,35.8,48.383A5.5,5.5,0,0,1-546.882,833.956Z" transform="translate(13.363 19.3)" fill="none" stroke="#c828f3" stroke-miterlimit="10" stroke-width="1"/>
    <path id="Path_9571" data-name="Path 9571" d="M-638.83,812.272a5.439,5.439,0,0,0,.482-7.2l-33.331-45.018c-.111-.148-.227-.29-.351-.427A4.757,4.757,0,0,0-675.37,758a4.164,4.164,0,0,0-3.27,1.4l-69.637,76.8a4.816,4.816,0,0,0-.719,1.049,5.75,5.75,0,0,0,1.929,7.213l53.524,35.359-.727-28.02-.275-10.127a4.938,4.938,0,0,1,2.687-4.685l51.977-24.04a4.146,4.146,0,0,0,1.051-.681m98.636,23.1a5.162,5.162,0,0,1-2.178,6.765l-51.086,23.586-36.571,16.885a4.871,4.871,0,0,0-2.688,4.649l1.054,38.9a4.813,4.813,0,0,1-2.632,4.568l-55.005,25.4a4.171,4.171,0,0,1-1.871.386,4.919,4.919,0,0,1-2.683-.994l-2.436-1.6-99.3-65.593L-845.541,855.3a5.279,5.279,0,0,1-.99-.856,5.519,5.519,0,0,1-.184-7.257l131.933-145.426,38.244-42.19a4.421,4.421,0,0,1,3.265-1.37,4.9,4.9,0,0,1,3.7,2.013l36.333,49.16,55.447,74.928,36.944,49.922A5.616,5.616,0,0,1-540.193,835.371Z" transform="translate(12.981 18.749)" fill="none" stroke="#c42cf3" stroke-miterlimit="10" stroke-width="1"/>
    <path id="Path_9572" data-name="Path 9572" d="M-635.182,812.975a5.606,5.606,0,0,0,.5-7.426l-34.358-46.407c-.116-.152-.235-.3-.362-.441a4.9,4.9,0,0,0-3.444-1.668,4.291,4.291,0,0,0-3.37,1.446L-748,837.646a4.9,4.9,0,0,0-.742,1.081,5.927,5.927,0,0,0,1.988,7.435l55.175,36.449-.75-28.883-.283-10.441a5.09,5.09,0,0,1,2.769-4.828l53.581-24.782a4.271,4.271,0,0,0,1.084-.7M-533.5,836.787a5.321,5.321,0,0,1-2.245,6.973l-52.661,24.313-37.7,17.406a5.023,5.023,0,0,0-2.77,4.794l1.086,40.1a4.961,4.961,0,0,1-2.712,4.707l-56.7,26.183a4.306,4.306,0,0,1-1.929.4,5.071,5.071,0,0,1-2.764-1.025l-2.511-1.653-102.365-67.615-51.489-34.037a5.4,5.4,0,0,1-1.02-.882,5.689,5.689,0,0,1-.19-7.481l136-149.91,39.422-43.491a4.567,4.567,0,0,1,3.367-1.413,5.053,5.053,0,0,1,3.813,2.076l37.454,50.675,57.157,77.24,38.083,51.462A5.716,5.716,0,0,1-533.5,836.787Z" transform="translate(12.599 18.197)" fill="none" stroke="#bf31f2" stroke-miterlimit="10" stroke-width="1"/>
    <path id="Path_9573" data-name="Path 9573" d="M-631.535,813.679a5.774,5.774,0,0,0,.511-7.649l-35.386-47.8c-.119-.157-.241-.308-.374-.453a5.047,5.047,0,0,0-3.546-1.719,4.423,4.423,0,0,0-3.471,1.491l-73.931,81.534a5.093,5.093,0,0,0-.764,1.112,6.107,6.107,0,0,0,2.049,7.659l56.825,37.538-.773-29.747-.291-10.752a5.242,5.242,0,0,1,2.852-4.973l55.183-25.523a4.425,4.425,0,0,0,1.117-.723m104.72,24.523c1.2,2.809.167,6.023-2.312,7.182l-54.236,25.04-38.828,17.927a5.17,5.17,0,0,0-2.853,4.936l1.119,41.3a5.108,5.108,0,0,1-2.794,4.848l-58.4,26.966a4.43,4.43,0,0,1-1.986.41,5.227,5.227,0,0,1-2.848-1.056l-2.586-1.7-105.426-69.638-53.03-35.055a5.661,5.661,0,0,1-1.052-.909,5.861,5.861,0,0,1-.2-7.7l140.071-154.4,40.6-44.792a4.7,4.7,0,0,1,3.467-1.456,5.209,5.209,0,0,1,3.928,2.138l38.575,52.191,58.866,79.55,39.223,53A6,6,0,0,1-526.816,838.2Z" transform="translate(12.217 17.646)" fill="none" stroke="#bb35f2" stroke-miterlimit="10" stroke-width="1"/>
    <path id="Path_9574" data-name="Path 9574" d="M-627.888,814.381a5.941,5.941,0,0,0,.526-7.871l-36.415-49.183c-.122-.161-.248-.317-.384-.467a5.193,5.193,0,0,0-3.648-1.768,4.551,4.551,0,0,0-3.573,1.534l-76.078,83.9a5.225,5.225,0,0,0-.786,1.145,6.283,6.283,0,0,0,2.108,7.881l58.475,38.629-.8-30.612-.3-11.063a5.4,5.4,0,0,1,2.935-5.119l56.786-26.264a4.566,4.566,0,0,0,1.149-.744m107.76,25.235c1.234,2.891.173,6.2-2.378,7.391l-55.812,25.767-39.955,18.448a5.322,5.322,0,0,0-2.936,5.08l1.151,42.5a5.257,5.257,0,0,1-2.875,4.989l-60.093,27.749a4.559,4.559,0,0,1-2.045.422,5.369,5.369,0,0,1-2.93-1.086l-2.661-1.751-108.49-71.661-54.57-36.073a5.788,5.788,0,0,1-1.082-.935,6.031,6.031,0,0,1-.2-7.929l144.14-158.88,41.781-46.093a4.834,4.834,0,0,1,3.568-1.5,5.36,5.36,0,0,1,4.043,2.2l39.694,53.708,60.577,81.86,40.362,54.541A6.149,6.149,0,0,1-520.128,839.617Z" transform="translate(11.835 17.095)" fill="none" stroke="#b639f1" stroke-miterlimit="10" stroke-width="1"/>
    <path id="Path_9575" data-name="Path 9575" d="M-624.241,815.084a6.109,6.109,0,0,0,.541-8.092l-37.442-50.572c-.126-.166-.256-.325-.4-.479a5.343,5.343,0,0,0-3.752-1.819,4.681,4.681,0,0,0-3.673,1.577l-78.226,86.271a5.38,5.38,0,0,0-.808,1.177,6.461,6.461,0,0,0,2.167,8.1l60.126,39.72-.817-31.476-.309-11.377a5.548,5.548,0,0,1,3.018-5.262l58.389-27.006a4.643,4.643,0,0,0,1.182-.766m110.8,25.949c1.269,2.971.178,6.373-2.445,7.6l-57.388,26.494-41.082,18.968a5.473,5.473,0,0,0-3.019,5.223l1.184,43.7a5.408,5.408,0,0,1-2.956,5.13l-61.79,28.533a4.681,4.681,0,0,1-2.1.433A5.52,5.52,0,0,1-686.052,976l-2.736-1.8L-800.34,900.513l-56.11-37.092a5.913,5.913,0,0,1-1.112-.961,6.2,6.2,0,0,1-.207-8.151l148.207-163.366,42.962-47.394a4.972,4.972,0,0,1,3.668-1.54,5.508,5.508,0,0,1,4.156,2.262l40.815,55.222,62.286,84.172,41.5,56.08A6.2,6.2,0,0,1-513.439,841.033Z" transform="translate(11.454 16.543)" fill="none" stroke="#b13df1" stroke-miterlimit="10" stroke-width="1"/>
    <path id="Path_9576" data-name="Path 9576" d="M-620.593,815.788a6.278,6.278,0,0,0,.556-8.315l-38.47-51.96c-.13-.17-.263-.334-.406-.493a5.489,5.489,0,0,0-3.855-1.868,4.806,4.806,0,0,0-3.775,1.62l-80.373,88.639a5.506,5.506,0,0,0-.831,1.21,6.635,6.635,0,0,0,2.227,8.325l61.776,40.811-.84-32.34-.317-11.688a5.7,5.7,0,0,1,3.1-5.407l59.992-27.747a4.829,4.829,0,0,0,1.214-.786m113.843,26.66c1.3,3.053.183,6.548-2.512,7.808l-58.963,27.221-42.211,19.49a5.619,5.619,0,0,0-3.1,5.366l1.216,44.9a5.553,5.553,0,0,1-3.037,5.271l-63.486,29.316a4.789,4.789,0,0,1-2.16.445,5.671,5.671,0,0,1-3.1-1.146l-2.811-1.851L-801.527,903.56l-57.649-38.11a6.078,6.078,0,0,1-1.143-.986,6.37,6.37,0,0,1-.212-8.376l152.276-167.85,44.14-48.695a5.107,5.107,0,0,1,3.77-1.582,5.661,5.661,0,0,1,4.27,2.324l41.935,56.739,64,86.482,42.64,57.62A6.406,6.406,0,0,1-506.75,842.448Z" transform="translate(11.072 15.992)" fill="none" stroke="#ad41f0" stroke-miterlimit="10" stroke-width="1"/>
    <path id="Path_9577" data-name="Path 9577" d="M-616.946,816.49a6.444,6.444,0,0,0,.57-8.536l-39.5-53.349c-.133-.175-.269-.343-.417-.507a5.645,5.645,0,0,0-3.959-1.918,4.936,4.936,0,0,0-3.875,1.665l-82.521,91.005a5.7,5.7,0,0,0-.852,1.243,6.814,6.814,0,0,0,2.286,8.548l63.427,41.9-.862-33.2-.325-12a5.851,5.851,0,0,1,3.184-5.55l61.594-28.488a4.96,4.96,0,0,0,1.246-.808m116.885,27.373c1.338,3.136.187,6.724-2.58,8.017l-60.538,27.949-43.339,20.01a5.771,5.771,0,0,0-3.184,5.51l1.249,46.1a5.7,5.7,0,0,1-3.119,5.412l-65.183,30.1a4.96,4.96,0,0,1-2.218.458,5.835,5.835,0,0,1-3.179-1.178l-2.886-1.9-117.676-77.728L-861.9,867.481a6.325,6.325,0,0,1-1.174-1.014,6.543,6.543,0,0,1-.218-8.6l156.345-172.335,45.32-50a5.243,5.243,0,0,1,3.87-1.624,5.809,5.809,0,0,1,4.384,2.386l43.056,58.255,65.706,88.792,43.781,59.159A6.659,6.659,0,0,1-500.061,843.863Z" transform="translate(10.69 15.44)" fill="none" stroke="#a846ef" stroke-miterlimit="10" stroke-width="1"/>
    <path id="Path_9578" data-name="Path 9578" d="M-613.3,817.194a6.612,6.612,0,0,0,.585-8.759L-653.239,753.7c-.136-.18-.276-.352-.427-.519a5.783,5.783,0,0,0-4.062-1.968,5.064,5.064,0,0,0-3.976,1.707l-84.669,93.374a5.864,5.864,0,0,0-.874,1.276,6.993,6.993,0,0,0,2.345,8.771l65.078,42.991-.885-34.068-.333-12.313a6.007,6.007,0,0,1,3.266-5.7l63.2-29.229a5.08,5.08,0,0,0,1.279-.828m119.927,28.085c1.374,3.217.192,6.9-2.647,8.224l-62.113,28.677L-602.6,902.71a5.924,5.924,0,0,0-3.268,5.654l1.282,47.3a5.85,5.85,0,0,1-3.2,5.553L-674.664,992.1a5.08,5.08,0,0,1-2.275.469,5.986,5.986,0,0,1-3.262-1.209l-2.962-1.95L-803.9,909.657l-60.731-40.146a6.458,6.458,0,0,1-1.2-1.04,6.712,6.712,0,0,1-.224-8.824l160.414-176.818,46.5-51.3a5.384,5.384,0,0,1,3.971-1.666,5.959,5.959,0,0,1,4.5,2.447l44.176,59.772,67.416,91.1,44.919,60.7A6.747,6.747,0,0,1-493.372,845.279Z" transform="translate(10.308 14.889)" fill="none" stroke="#a34aef" stroke-miterlimit="10" stroke-width="1"/>
    <path id="Path_9579" data-name="Path 9579" d="M-609.651,817.9a6.779,6.779,0,0,0,.6-8.981l-41.554-56.126c-.14-.184-.283-.361-.439-.533a5.932,5.932,0,0,0-4.164-2.018,5.193,5.193,0,0,0-4.076,1.751L-746.1,847.732a5.98,5.98,0,0,0-.9,1.308,7.169,7.169,0,0,0,2.4,8.993l66.729,44.082-.908-34.933-.342-12.626a6.159,6.159,0,0,1,3.35-5.84l64.8-29.971a5.134,5.134,0,0,0,1.311-.849m122.968,28.8c1.408,3.3.2,7.073-2.714,8.433l-63.688,29.4-45.594,21.052a6.073,6.073,0,0,0-3.351,5.8l1.315,48.5A6,6,0,0,1-604,965.571l-68.575,31.665a5.189,5.189,0,0,1-2.333.482,6.133,6.133,0,0,1-3.345-1.24l-3.036-2-123.8-81.775-62.27-41.164a6.588,6.588,0,0,1-1.235-1.066,6.882,6.882,0,0,1-.23-9.048l164.481-181.3,47.679-52.6a5.521,5.521,0,0,1,4.071-1.709,6.11,6.11,0,0,1,4.612,2.511l45.3,61.286,69.126,93.414,46.058,62.239A6.943,6.943,0,0,1-486.683,846.694Z" transform="translate(9.927 14.337)" fill="none" stroke="#9f4eee" stroke-miterlimit="10" stroke-width="1"/>
    <path id="Path_9580" data-name="Path 9580" d="M-606,818.6a6.948,6.948,0,0,0,.615-9.2l-42.581-57.514c-.143-.189-.291-.369-.45-.545a6.077,6.077,0,0,0-4.266-2.068,5.322,5.322,0,0,0-4.178,1.793l-88.964,98.111a6.135,6.135,0,0,0-.918,1.34,7.346,7.346,0,0,0,2.464,9.216L-675.9,904.9l-.929-35.8-.351-12.938a6.311,6.311,0,0,1,3.433-5.984l66.4-30.713A5.31,5.31,0,0,0-606,818.6m126.01,29.509c1.443,3.38.2,7.249-2.781,8.642l-65.264,30.131-46.721,21.572a6.222,6.222,0,0,0-3.434,5.94l1.346,49.7a6.148,6.148,0,0,1-3.362,5.834l-70.272,32.448a5.325,5.325,0,0,1-2.391.493,6.283,6.283,0,0,1-3.427-1.27l-3.112-2.049-126.862-83.8-63.812-42.183a6.743,6.743,0,0,1-1.265-1.092,7.052,7.052,0,0,1-.235-9.272l168.55-185.788,48.857-53.9a5.656,5.656,0,0,1,4.172-1.751,6.261,6.261,0,0,1,4.727,2.574l46.417,62.8,70.836,95.724,47.2,63.778A7.127,7.127,0,0,1-479.994,848.109Z" transform="translate(9.545 13.786)" fill="none" stroke="#9a52ee" stroke-miterlimit="10" stroke-width="1"/>
    <path id="Path_9581" data-name="Path 9581" d="M-602.357,819.3c2.547-2.253,2.825-6.47.629-9.425l-43.609-58.9c-.146-.193-.3-.378-.46-.559a6.224,6.224,0,0,0-4.37-2.118,5.453,5.453,0,0,0-4.279,1.837l-91.11,100.479a6.313,6.313,0,0,0-.942,1.373,7.524,7.524,0,0,0,2.525,9.437l70.03,46.262-.952-36.66-.359-13.251a6.463,6.463,0,0,1,3.514-6.129l68.007-31.454a5.416,5.416,0,0,0,1.376-.891m129.052,30.222c1.478,3.461.207,7.423-2.848,8.85l-66.839,30.859-47.851,22.094a6.373,6.373,0,0,0-3.515,6.083l1.378,50.9a6.3,6.3,0,0,1-3.443,5.975l-71.967,33.232a5.469,5.469,0,0,1-2.449.5,6.429,6.429,0,0,1-3.511-1.3l-3.186-2.1L-807.461,918.8l-65.352-43.2a6.965,6.965,0,0,1-1.3-1.119,7.223,7.223,0,0,1-.24-9.5l172.618-190.272,50.038-55.2a5.792,5.792,0,0,1,4.272-1.793,6.415,6.415,0,0,1,4.84,2.635l47.538,64.319L-522.5,782.71l48.337,65.317A7.362,7.362,0,0,1-473.305,849.525Z" transform="translate(9.163 13.235)" fill="none" stroke="#9656ed" stroke-miterlimit="10" stroke-width="1"/>
    <path id="Path_9582" data-name="Path 9582" d="M-598.711,820.005c2.609-2.307,2.893-6.622.645-9.646L-642.7,750.068c-.151-.2-.3-.387-.472-.572a6.373,6.373,0,0,0-4.473-2.168,5.577,5.577,0,0,0-4.379,1.88l-93.259,102.847a6.468,6.468,0,0,0-.963,1.4,7.7,7.7,0,0,0,2.584,9.66l71.681,47.353-.975-37.524-.367-13.563a6.618,6.618,0,0,1,3.6-6.274l69.609-32.195a5.519,5.519,0,0,0,1.408-.912m132.094,30.935c1.512,3.543.211,7.6-2.916,9.059l-68.415,31.587L-586.925,914.2a6.523,6.523,0,0,0-3.6,6.226l1.411,52.1a6.444,6.444,0,0,1-3.525,6.115l-73.663,34.015a5.577,5.577,0,0,1-2.506.517,6.59,6.59,0,0,1-3.593-1.331l-3.262-2.147L-808.649,921.85l-66.893-44.219a7.162,7.162,0,0,1-1.326-1.145,7.393,7.393,0,0,1-.247-9.719l176.688-194.757,51.216-56.5a5.928,5.928,0,0,1,4.373-1.835,6.565,6.565,0,0,1,4.955,2.7l48.659,65.834,74.255,100.346,49.477,66.857A7.45,7.45,0,0,1-466.616,850.94Z" transform="translate(8.781 12.683)" fill="none" stroke="#915bec" stroke-miterlimit="10" stroke-width="1"/>
    <path id="Path_9583" data-name="Path 9583" d="M-595.063,820.709c2.669-2.36,2.959-6.775.66-9.87l-45.665-61.677c-.153-.2-.311-.4-.482-.586a6.517,6.517,0,0,0-4.577-2.217,5.706,5.706,0,0,0-4.48,1.922l-95.4,105.216a6.593,6.593,0,0,0-.986,1.437,7.88,7.88,0,0,0,2.644,9.883l73.33,48.443-1-38.388L-671.4,861a6.766,6.766,0,0,1,3.681-6.417l71.211-32.937a5.671,5.671,0,0,0,1.441-.933m135.136,31.646c1.548,3.624.217,7.774-2.983,9.268L-532.9,893.937l-50.1,23.133a6.675,6.675,0,0,0-3.681,6.371l1.443,53.3a6.592,6.592,0,0,1-3.605,6.257l-75.36,34.8a5.714,5.714,0,0,1-2.565.53,6.737,6.737,0,0,1-3.674-1.362l-3.337-2.2L-809.836,924.9l-68.432-45.237a7.252,7.252,0,0,1-1.357-1.171,7.562,7.562,0,0,1-.252-9.943L-699.122,669.3l52.4-57.8a6.064,6.064,0,0,1,4.474-1.877,6.715,6.715,0,0,1,5.068,2.759l49.779,67.351,75.966,102.656,50.615,68.4A7.661,7.661,0,0,1-459.927,852.355Z" transform="translate(8.399 12.132)" fill="none" stroke="#8c5fec" stroke-miterlimit="10" stroke-width="1"/>
    <path id="Path_9584" data-name="Path 9584" d="M-591.416,821.411c2.728-2.412,3.026-6.927.675-10.092l-46.693-63.066c-.157-.207-.318-.407-.492-.6a6.663,6.663,0,0,0-4.68-2.268,5.836,5.836,0,0,0-4.58,1.967L-744.74,854.938a6.75,6.75,0,0,0-1.008,1.469,8.057,8.057,0,0,0,2.7,10.105l74.98,49.533-1.019-39.253-.384-14.187a6.922,6.922,0,0,1,3.763-6.563l72.816-33.678a5.779,5.779,0,0,0,1.473-.954m138.178,32.36c1.582,3.706.222,7.948-3.05,9.476l-71.566,33.041-51.233,23.655a6.821,6.821,0,0,0-3.764,6.513l1.476,54.5a6.743,6.743,0,0,1-3.687,6.4l-77.056,35.582a5.854,5.854,0,0,1-2.621.541,6.9,6.9,0,0,1-3.759-1.393l-3.412-2.246-139.112-91.887L-881,881.691a7.394,7.394,0,0,1-1.387-1.2,7.732,7.732,0,0,1-.258-10.167L-697.816,666.6l53.576-59.1a6.2,6.2,0,0,1,4.574-1.919,6.866,6.866,0,0,1,5.182,2.821l50.9,68.866,77.675,104.967,51.755,69.935A7.842,7.842,0,0,1-453.238,853.771Z" transform="translate(8.018 11.58)" fill="none" stroke="#8863eb" stroke-miterlimit="10" stroke-width="1"/>
    <path id="Path_9585" data-name="Path 9585" d="M-587.769,822.115c2.788-2.467,3.092-7.08.688-10.315L-634.8,747.346c-.161-.211-.326-.415-.5-.612a6.808,6.808,0,0,0-4.782-2.317,5.961,5.961,0,0,0-4.681,2.01l-99.7,109.952a6.879,6.879,0,0,0-1.031,1.5,8.233,8.233,0,0,0,2.762,10.327l76.631,50.624-1.041-40.116-.393-14.5a7.07,7.07,0,0,1,3.846-6.706l74.418-34.419a5.936,5.936,0,0,0,1.506-.975m141.219,33.071c1.617,3.788.226,8.123-3.117,9.685l-73.142,33.768-52.36,24.175a6.973,6.973,0,0,0-3.848,6.657l1.509,55.7a6.889,6.889,0,0,1-3.768,6.538l-78.752,36.365a5.961,5.961,0,0,1-2.679.553,7.044,7.044,0,0,1-3.84-1.424l-3.487-2.3L-812.21,930.994l-71.514-47.273a7.591,7.591,0,0,1-1.418-1.225,7.9,7.9,0,0,1-.263-10.39l188.893-208.212,54.754-60.4a6.335,6.335,0,0,1,4.676-1.961,7.014,7.014,0,0,1,5.3,2.883l52.02,70.383,79.385,107.277,52.894,71.475A8,8,0,0,1-446.549,855.186Z" transform="translate(7.636 11.029)" fill="none" stroke="#8367eb" stroke-miterlimit="10" stroke-width="1"/>
    <path id="Path_9586" data-name="Path 9586" d="M-584.122,822.818c2.849-2.519,3.159-7.232.7-10.536l-48.747-65.843c-.164-.216-.333-.424-.515-.625a6.959,6.959,0,0,0-4.885-2.368,6.091,6.091,0,0,0-4.782,2.053L-744.2,857.82a7.027,7.027,0,0,0-1.052,1.534,8.412,8.412,0,0,0,2.821,10.55l78.282,51.715-1.064-40.981-.4-14.812a7.225,7.225,0,0,1,3.929-6.851l76.021-35.16a6.054,6.054,0,0,0,1.537-1M-439.861,856.6c1.652,3.869.232,8.3-3.185,9.893l-74.715,34.5-53.49,24.7a7.126,7.126,0,0,0-3.93,6.8l1.542,56.9a7.04,7.04,0,0,1-3.849,6.68l-80.449,37.147a6.1,6.1,0,0,1-2.737.565,7.191,7.191,0,0,1-3.923-1.454l-3.562-2.345L-813.4,934.042l-73.053-48.292A7.759,7.759,0,0,1-887.9,884.5a8.074,8.074,0,0,1-.269-10.613l192.962-212.7,55.935-61.7a6.475,6.475,0,0,1,4.776-2.005,7.167,7.167,0,0,1,5.411,2.946l53.14,71.9,81.1,109.588,54.034,73.016A8.146,8.146,0,0,1-439.861,856.6Z" transform="translate(7.254 10.477)" fill="none" stroke="#7f6bea" stroke-miterlimit="10" stroke-width="1"/>
    <path id="Path_9587" data-name="Path 9587" d="M-580.474,823.521c2.909-2.572,3.225-7.385.718-10.759l-49.776-67.231c-.167-.22-.339-.433-.525-.639a7.1,7.1,0,0,0-4.988-2.417,6.221,6.221,0,0,0-4.883,2.1l-104,114.689A7.192,7.192,0,0,0-745,860.827a8.589,8.589,0,0,0,2.881,10.774l79.932,52.8-1.086-41.844-.41-15.125a7.379,7.379,0,0,1,4.012-7l77.624-35.9a6.229,6.229,0,0,0,1.57-1.017m147.3,34.5c1.686,3.951.236,8.473-3.252,10.1l-76.291,35.223-54.617,25.217a7.273,7.273,0,0,0-4.013,6.943l1.574,58.095a7.188,7.188,0,0,1-3.93,6.821l-82.145,37.931a6.235,6.235,0,0,1-2.794.576,7.341,7.341,0,0,1-4.006-1.484l-3.638-2.4-148.3-97.956-74.594-49.311a7.853,7.853,0,0,1-1.479-1.277,8.243,8.243,0,0,1-.275-10.837L-693.9,658.486l57.113-63.007a6.608,6.608,0,0,1,4.877-2.047,7.321,7.321,0,0,1,5.526,3.008l54.26,73.414,82.805,111.9,55.172,74.554A8.358,8.358,0,0,1-433.172,858.017Z" transform="translate(6.872 9.926)" fill="none" stroke="#7a6fea" stroke-miterlimit="10" stroke-width="1"/>
    <path id="Path_9588" data-name="Path 9588" d="M-576.827,824.224c2.969-2.626,3.292-7.538.733-10.98l-50.8-68.62c-.172-.225-.346-.442-.536-.651a7.253,7.253,0,0,0-5.091-2.468,6.345,6.345,0,0,0-4.983,2.141L-743.651,860.7a7.313,7.313,0,0,0-1.1,1.6,8.766,8.766,0,0,0,2.94,11l81.583,53.894-1.109-42.708-.418-15.437a7.531,7.531,0,0,1,4.095-7.14l79.226-36.643a6.326,6.326,0,0,0,1.6-1.039m150.344,35.208c1.721,4.032.241,8.649-3.319,10.311l-77.867,35.95-55.744,25.738a7.425,7.425,0,0,0-4.1,7.088l1.607,59.295a7.335,7.335,0,0,1-4.012,6.961l-83.84,38.715a6.364,6.364,0,0,1-2.853.587,7.5,7.5,0,0,1-4.089-1.515l-3.712-2.444L-815.77,940.139l-76.135-50.328a8.054,8.054,0,0,1-1.509-1.3,8.412,8.412,0,0,1-.281-11.061l201.1-221.665,58.294-64.308a6.743,6.743,0,0,1,4.977-2.089,7.472,7.472,0,0,1,5.639,3.07l55.38,74.93,84.515,114.209,56.312,76.094A8.491,8.491,0,0,1-426.483,859.432Z" transform="translate(6.49 9.374)" fill="none" stroke="#7574e9" stroke-miterlimit="10" stroke-width="1"/>
    <path id="Path_9589" data-name="Path 9589" d="M-573.18,824.928c3.028-2.679,3.359-7.69.748-11.2l-51.831-70.008c-.174-.23-.353-.45-.547-.665A7.4,7.4,0,0,0-630,740.535a6.479,6.479,0,0,0-5.085,2.183L-743.38,862.143a7.473,7.473,0,0,0-1.118,1.631,8.944,8.944,0,0,0,3,11.218l83.234,54.985-1.131-43.573-.427-15.748a7.683,7.683,0,0,1,4.178-7.285l80.829-37.384a6.5,6.5,0,0,0,1.635-1.059m153.386,35.92c1.757,4.113.245,8.823-3.386,10.519l-79.442,36.677L-559.494,934.3a7.572,7.572,0,0,0-4.179,7.23l1.638,60.495a7.485,7.485,0,0,1-4.093,7.1l-85.537,39.5a6.47,6.47,0,0,1-2.911.6,7.647,7.647,0,0,1-4.171-1.545l-3.788-2.494-154.423-102-77.674-51.347a8.229,8.229,0,0,1-1.541-1.331c-2.9-3.223-3.033-8.274-.285-11.285l205.167-226.15,59.472-65.609a6.883,6.883,0,0,1,5.078-2.132,7.626,7.626,0,0,1,5.754,3.131l56.5,76.447,86.225,116.519,57.451,77.634A8.609,8.609,0,0,1-419.794,860.848Z" transform="translate(6.109 8.823)" fill="none" stroke="#7178e8" stroke-miterlimit="10" stroke-width="1"/>
    <path id="Path_9590" data-name="Path 9590" d="M-569.532,825.63c3.088-2.731,3.424-7.842.762-11.425l-52.858-71.4c-.178-.234-.361-.459-.558-.677a7.545,7.545,0,0,0-5.3-2.568,6.607,6.607,0,0,0-5.186,2.227L-743.107,863.584a7.64,7.64,0,0,0-1.141,1.663,9.119,9.119,0,0,0,3.059,11.439l84.885,56.076-1.153-44.436-.435-16.062a7.833,7.833,0,0,1,4.26-7.429l82.433-38.126a6.6,6.6,0,0,0,1.668-1.081M-413.1,862.263c1.791,4.2.251,9-3.453,10.728l-81.018,37.4-58,26.779a7.723,7.723,0,0,0-4.262,7.374l1.671,61.694a7.633,7.633,0,0,1-4.174,7.242l-87.233,40.281a6.625,6.625,0,0,1-2.968.612,7.812,7.812,0,0,1-4.255-1.577l-3.862-2.543L-818.145,946.235l-79.214-52.365a8.354,8.354,0,0,1-1.571-1.357c-2.96-3.287-3.093-8.437-.292-11.509l209.236-230.634,60.652-66.91a7.014,7.014,0,0,1,5.178-2.174,7.772,7.772,0,0,1,5.867,3.194l57.622,77.962,87.935,118.831,58.59,79.173A8.863,8.863,0,0,1-413.1,862.263Z" transform="translate(5.727 8.272)" fill="none" stroke="#6c7ce8" stroke-miterlimit="10" stroke-width="1"/>
    <path id="Path_9591" data-name="Path 9591" d="M-565.885,826.333c3.148-2.784,3.492-7.994.777-11.646L-618.994,741.9c-.182-.239-.367-.468-.569-.691a7.688,7.688,0,0,0-5.4-2.617,6.732,6.732,0,0,0-5.287,2.27L-742.835,865.026a7.753,7.753,0,0,0-1.162,1.7,9.3,9.3,0,0,0,3.119,11.662l86.534,57.167-1.176-45.3-.443-16.373a7.986,7.986,0,0,1,4.343-7.574l84.035-38.867a6.719,6.719,0,0,0,1.7-1.1m159.469,37.345c1.826,4.278.256,9.174-3.52,10.937l-82.594,38.131-59.128,27.3A7.876,7.876,0,0,0-556,947.564l1.7,62.894a7.78,7.78,0,0,1-4.255,7.383l-88.93,41.065a6.76,6.76,0,0,1-3.026.624,7.953,7.953,0,0,1-4.337-1.608l-3.938-2.592L-819.331,949.284-900.087,895.9a8.553,8.553,0,0,1-1.6-1.382c-3.018-3.352-3.153-8.6-.3-11.734l213.3-235.119,61.831-68.211a7.153,7.153,0,0,1,5.28-2.216,7.926,7.926,0,0,1,5.981,3.255l58.741,79.478L-467.2,781.115l59.73,80.712A9.055,9.055,0,0,1-406.416,863.678Z" transform="translate(5.345 7.72)" fill="none" stroke="#6880e7" stroke-miterlimit="10" stroke-width="1"/>
    <path id="Path_9592" data-name="Path 9592" d="M-562.238,827.036c3.209-2.838,3.557-8.148.792-11.869l-54.915-74.173c-.184-.243-.374-.477-.579-.7a7.841,7.841,0,0,0-5.5-2.668,6.867,6.867,0,0,0-5.388,2.313l-114.732,126.53a7.88,7.88,0,0,0-1.185,1.728,9.475,9.475,0,0,0,3.178,11.885l88.185,58.256-1.2-46.165-.452-16.687a8.141,8.141,0,0,1,4.427-7.718l85.638-39.609a6.851,6.851,0,0,0,1.733-1.121m162.511,38.058c1.86,4.359.26,9.348-3.587,11.145L-487.483,915.1l-60.256,27.821a8.026,8.026,0,0,0-4.428,7.66l1.736,64.093a7.929,7.929,0,0,1-4.336,7.525l-90.626,41.847a6.874,6.874,0,0,1-3.084.636,8.1,8.1,0,0,1-4.42-1.638l-4.012-2.642L-820.519,952.332l-82.3-54.4a8.73,8.73,0,0,1-1.632-1.409c-3.076-3.415-3.213-8.767-.3-11.958l217.372-239.6,63.011-69.512a7.3,7.3,0,0,1,5.38-2.259,8.074,8.074,0,0,1,6.095,3.319l59.863,80.994,91.355,123.451,60.868,82.252A9.187,9.187,0,0,1-399.727,865.094Z" transform="translate(4.963 7.169)" fill="none" stroke="#6384e7" stroke-miterlimit="10" stroke-width="1"/>
    <path id="Path_9593" data-name="Path 9593" d="M-558.591,827.739c3.269-2.891,3.625-8.3.807-12.091l-55.942-75.562c-.189-.248-.382-.486-.591-.717a7.982,7.982,0,0,0-5.606-2.717,6.986,6.986,0,0,0-5.488,2.357l-116.88,128.9a8.039,8.039,0,0,0-1.207,1.76,9.652,9.652,0,0,0,3.237,12.108l89.836,59.347-1.221-47.029-.46-17a8.292,8.292,0,0,1,4.509-7.863l87.241-40.351a6.957,6.957,0,0,0,1.766-1.143m165.553,38.77c1.9,4.44.265,9.523-3.654,11.354l-85.745,39.586-61.383,28.342a8.176,8.176,0,0,0-4.511,7.8l1.769,65.294a8.076,8.076,0,0,1-4.418,7.665l-92.322,42.631a6.989,6.989,0,0,1-3.141.648,8.258,8.258,0,0,1-4.5-1.668l-4.088-2.692L-821.706,955.38l-83.836-55.419a8.888,8.888,0,0,1-1.661-1.435c-3.134-3.48-3.275-8.931-.309-12.181l221.441-244.088,64.19-70.813a7.427,7.427,0,0,1,5.481-2.3,8.228,8.228,0,0,1,6.209,3.38l60.983,82.51L-456.143,780.8l62.008,83.792A9.362,9.362,0,0,1-393.038,866.509Z" transform="translate(4.581 6.617)" fill="none" stroke="#5e89e6" stroke-miterlimit="10" stroke-width="1"/>
    <path id="Path_9594" data-name="Path 9594" d="M-554.943,828.443c3.328-2.944,3.69-8.452.822-12.313l-56.97-76.95c-.192-.252-.389-.494-.6-.731a8.134,8.134,0,0,0-5.71-2.767,7.125,7.125,0,0,0-5.589,2.4L-742.018,869.349a8.205,8.205,0,0,0-1.231,1.792,9.831,9.831,0,0,0,3.3,12.33l91.486,60.438-1.243-47.894-.469-17.31a8.441,8.441,0,0,1,4.591-8.007l88.844-41.091a7.081,7.081,0,0,0,1.8-1.163m168.594,39.481c1.93,4.522.27,9.7-3.721,11.563L-477.39,919.8-539.9,948.663a8.326,8.326,0,0,0-4.594,7.948l1.8,66.493a8.225,8.225,0,0,1-4.5,7.806l-94.019,43.415a7.133,7.133,0,0,1-3.2.659,8.415,8.415,0,0,1-4.586-1.7l-4.163-2.74L-822.892,958.428l-85.377-56.438a9.059,9.059,0,0,1-1.693-1.461c-3.191-3.544-3.334-9.1-.315-12.405l225.51-248.573,65.37-72.114a7.564,7.564,0,0,1,5.581-2.343,8.376,8.376,0,0,1,6.323,3.443l62.1,84.026,94.775,128.073,63.148,85.331A9.617,9.617,0,0,1-386.349,867.924Z" transform="translate(4.2 6.066)" fill="none" stroke="#5a8de5" stroke-miterlimit="10" stroke-width="1"/>
    <path id="Path_9595" data-name="Path 9595" d="M-551.3,829.145c3.388-3,3.757-8.6.836-12.536l-58-78.338c-.2-.257-.4-.5-.612-.743a8.278,8.278,0,0,0-5.813-2.817,7.246,7.246,0,0,0-5.689,2.443L-741.747,870.79A8.365,8.365,0,0,0-743,872.615a10.007,10.007,0,0,0,3.358,12.552l93.137,61.527-1.266-48.756-.477-17.623a8.592,8.592,0,0,1,4.674-8.151l90.446-41.833a7.208,7.208,0,0,0,1.831-1.185M-379.66,869.34c1.965,4.6.275,9.873-3.789,11.771l-88.894,41.041-63.64,29.383a8.475,8.475,0,0,0-4.676,8.091l1.834,67.691a8.377,8.377,0,0,1-4.58,7.948l-95.714,44.2a7.258,7.258,0,0,1-3.256.671,8.565,8.565,0,0,1-4.669-1.729l-4.238-2.791-172.8-114.138L-911,904.021a9.275,9.275,0,0,1-1.724-1.488c-3.248-3.607-3.394-9.259-.32-12.628l229.579-253.057,66.548-73.416a7.7,7.7,0,0,1,5.682-2.385,8.53,8.53,0,0,1,6.438,3.5l63.224,85.542,96.484,130.384,64.287,86.87A9.7,9.7,0,0,1-379.66,869.34Z" transform="translate(3.818 5.514)" fill="none" stroke="#5591e5" stroke-miterlimit="10" stroke-width="1"/>
    <path id="Path_9596" data-name="Path 9596" d="M-547.649,829.849c3.448-3.051,3.823-8.758.851-12.759l-59.025-79.726c-.2-.261-.4-.512-.623-.757a8.421,8.421,0,0,0-5.916-2.865,7.374,7.374,0,0,0-5.79,2.486l-123.323,136a8.522,8.522,0,0,0-1.274,1.857,10.185,10.185,0,0,0,3.417,12.774l94.788,62.618-1.288-49.621-.486-17.935a8.748,8.748,0,0,1,4.757-8.3l92.05-42.574a7.364,7.364,0,0,0,1.863-1.205m174.678,40.906c2,4.686.279,10.048-3.856,11.98L-467.3,924.5l-64.767,29.9a8.624,8.624,0,0,0-4.758,8.234l1.866,68.892a8.521,8.521,0,0,1-4.661,8.088l-97.41,44.981a7.382,7.382,0,0,1-3.314.683,8.692,8.692,0,0,1-4.75-1.76l-4.314-2.839-175.859-116.16-88.457-58.474a9.4,9.4,0,0,1-1.753-1.515c-3.305-3.671-3.454-9.424-.326-12.852l233.646-257.542,67.729-74.717A7.836,7.836,0,0,1-608.646,557a8.679,8.679,0,0,1,6.551,3.567l64.345,87.058,98.194,132.694,65.426,88.409A9.906,9.906,0,0,1-372.971,870.755Z" transform="translate(3.436 4.963)" fill="none" stroke="#5095e4" stroke-miterlimit="10" stroke-width="1"/>
    <path id="Path_9597" data-name="Path 9597" d="M-544,830.551c3.51-3.1,3.892-8.91.867-12.98l-60.054-81.115c-.2-.266-.409-.522-.634-.769a8.57,8.57,0,0,0-6.017-2.917,7.508,7.508,0,0,0-5.892,2.529L-741.2,873.672a8.654,8.654,0,0,0-1.3,1.889,10.363,10.363,0,0,0,3.476,13l96.439,63.708-1.311-50.484-.494-18.248a8.9,8.9,0,0,1,4.84-8.441l93.653-43.315A7.426,7.426,0,0,0-544,830.551m177.72,41.619c2.035,4.768.284,10.224-3.923,12.189l-92.045,42.5-65.895,30.424a8.774,8.774,0,0,0-4.841,8.377l1.9,70.091a8.672,8.672,0,0,1-4.743,8.228l-99.107,45.765a7.523,7.523,0,0,1-3.372.7,8.862,8.862,0,0,1-4.833-1.792l-4.388-2.888L-826.454,967.573l-90-59.492a9.529,9.529,0,0,1-1.784-1.541c-3.363-3.735-3.514-9.587-.332-13.076l237.715-262.027,68.907-76.018a7.977,7.977,0,0,1,5.883-2.469,8.833,8.833,0,0,1,6.666,3.628l65.464,88.574,99.9,135.005,66.565,89.95A10.1,10.1,0,0,1-366.282,872.17Z" transform="translate(3.054 4.412)" fill="none" stroke="#4c99e4" stroke-miterlimit="10" stroke-width="1"/>
    <path id="Path_9598" data-name="Path 9598" d="M-540.355,831.254c3.57-3.156,3.957-9.061.882-13.2l-61.081-82.5c-.206-.271-.417-.532-.645-.784a8.714,8.714,0,0,0-6.121-2.966,7.629,7.629,0,0,0-5.992,2.572l-127.618,140.74a8.8,8.8,0,0,0-1.318,1.921,10.539,10.539,0,0,0,3.536,13.22l98.089,64.8-1.334-51.349-.5-18.56a9.05,9.05,0,0,1,4.923-8.584l95.255-44.057a7.574,7.574,0,0,0,1.927-1.249m180.762,42.332c2.069,4.848.29,10.4-3.99,12.4L-457.2,929.206l-67.022,30.945a8.926,8.926,0,0,0-4.925,8.521l1.932,71.292a8.819,8.819,0,0,1-4.823,8.369l-100.8,46.546a7.644,7.644,0,0,1-3.429.708,9.009,9.009,0,0,1-4.916-1.823l-4.464-2.938L-827.64,970.621l-91.537-60.512a9.659,9.659,0,0,1-1.816-1.567c-3.42-3.8-3.573-9.751-.336-13.3l241.783-266.511,70.088-77.319a8.109,8.109,0,0,1,5.984-2.511,8.985,8.985,0,0,1,6.78,3.69l66.585,90.09L-428.5,780l67.7,91.488A10.26,10.26,0,0,1-359.593,873.586Z" transform="translate(2.673 3.86)" fill="none" stroke="#479ee3" stroke-miterlimit="10" stroke-width="1"/>
    <path id="Path_9599" data-name="Path 9599" d="M-536.708,831.958c3.629-3.21,4.024-9.215.9-13.424l-62.109-83.89c-.209-.276-.424-.54-.656-.8a8.862,8.862,0,0,0-6.224-3.017,7.763,7.763,0,0,0-6.094,2.617L-740.658,876.554A8.978,8.978,0,0,0-742,878.509a10.716,10.716,0,0,0,3.6,13.441l99.74,65.889-1.356-52.214-.511-18.871a9.2,9.2,0,0,1,5.005-8.73l96.859-44.8a7.739,7.739,0,0,0,1.959-1.269M-352.9,875c2.1,4.93.294,10.573-4.057,12.606l-95.2,43.95-68.149,31.465a9.077,9.077,0,0,0-5.008,8.665l1.965,72.491a8.967,8.967,0,0,1-4.905,8.51l-102.5,47.33a7.782,7.782,0,0,1-3.487.719,9.174,9.174,0,0,1-5-1.852l-4.538-2.988L-828.828,973.669l-93.078-61.529a9.9,9.9,0,0,1-1.845-1.594c-3.478-3.863-3.635-9.916-.343-13.523l245.853-271,71.266-78.619a8.249,8.249,0,0,1,6.086-2.554A9.136,9.136,0,0,1-594,548.607l67.706,91.607,103.323,139.626,68.845,93.028A10.415,10.415,0,0,1-352.9,875Z" transform="translate(2.291 3.309)" fill="none" stroke="#43a2e3" stroke-miterlimit="10" stroke-width="1"/>
    <path id="Path_9600" data-name="Path 9600" d="M-533.061,832.66c3.689-3.262,4.091-9.367.911-13.646l-63.137-85.279c-.212-.281-.431-.549-.666-.81a9.012,9.012,0,0,0-6.328-3.066,7.889,7.889,0,0,0-6.194,2.659L-740.387,878a9.09,9.09,0,0,0-1.362,1.986,10.9,10.9,0,0,0,3.654,13.664l101.39,66.98-1.378-53.077-.52-19.185a9.357,9.357,0,0,1,5.089-8.873l98.461-45.54a7.837,7.837,0,0,0,1.992-1.291m186.845,43.757c2.138,5.011.3,10.747-4.124,12.813l-96.772,44.678L-516.39,965.9a9.225,9.225,0,0,0-5.09,8.807l2,73.691a9.117,9.117,0,0,1-4.986,8.651l-104.2,48.114a7.9,7.9,0,0,1-3.545.73,9.322,9.322,0,0,1-5.081-1.883l-4.614-3.038L-830.015,976.717l-94.617-62.547a10.038,10.038,0,0,1-1.876-1.62c-3.536-3.927-3.695-10.079-.349-13.747l249.921-275.481,72.445-79.92a8.385,8.385,0,0,1,6.186-2.6,9.287,9.287,0,0,1,7.008,3.815l68.825,93.121L-417.437,779.68l69.983,94.569A10.594,10.594,0,0,1-346.215,876.417Z" transform="translate(1.909 2.757)" fill="none" stroke="#3ea6e2" stroke-miterlimit="10" stroke-width="1"/>
    <path id="Path_9601" data-name="Path 9601" d="M-529.414,833.364c3.749-3.317,4.157-9.52.926-13.869l-64.164-86.667c-.216-.284-.437-.558-.677-.823a9.156,9.156,0,0,0-6.431-3.117,8.021,8.021,0,0,0-6.295,2.7L-740.114,879.437a9.192,9.192,0,0,0-1.385,2.019,11.071,11.071,0,0,0,3.714,13.887l103.04,68.07-1.4-53.942-.528-19.5a9.511,9.511,0,0,1,5.172-9.018l100.063-46.28a7.971,7.971,0,0,0,2.025-1.311m189.887,44.468c2.174,5.093.3,10.923-4.191,13.022l-98.348,45.406-70.406,32.507a9.377,9.377,0,0,0-5.173,8.951l2.029,74.89a9.265,9.265,0,0,1-5.068,8.791l-105.892,48.9a8.024,8.024,0,0,1-3.6.743,9.471,9.471,0,0,1-5.165-1.913l-4.688-3.087L-831.2,979.766-927.359,916.2a10.127,10.127,0,0,1-1.907-1.646c-3.594-3.99-3.755-10.243-.354-13.971l253.989-279.965,73.625-81.221a8.52,8.52,0,0,1,6.287-2.638,9.433,9.433,0,0,1,7.122,3.877l69.947,94.638,106.744,144.249,71.122,96.107A10.75,10.75,0,0,1-339.526,877.832Z" transform="translate(1.527 2.206)" fill="none" stroke="#39aae1" stroke-miterlimit="10" stroke-width="1"/>
    <path id="Path_9602" data-name="Path 9602" d="M-525.766,834.067c3.81-3.369,4.224-9.673.941-14.09l-65.193-88.056c-.219-.289-.444-.567-.687-.836a9.308,9.308,0,0,0-6.533-3.165,8.144,8.144,0,0,0-6.4,2.746L-739.842,880.878a9.372,9.372,0,0,0-1.407,2.051,11.248,11.248,0,0,0,3.773,14.11l104.691,69.16-1.424-54.807-.536-19.809a9.662,9.662,0,0,1,5.255-9.162L-527.823,835.4a8.13,8.13,0,0,0,2.057-1.333m192.929,45.181c2.209,5.174.309,11.1-4.259,13.231l-99.922,46.133-71.534,33.028a9.527,9.527,0,0,0-5.256,9.1l2.061,76.089a9.414,9.414,0,0,1-5.148,8.933l-107.588,49.68a8.152,8.152,0,0,1-3.661.755,9.609,9.609,0,0,1-5.247-1.944l-4.764-3.136-194.233-128.3-97.7-64.583a10.372,10.372,0,0,1-1.937-1.674c-3.651-4.054-3.814-10.408-.359-14.195l258.058-284.45,74.8-82.522a8.658,8.658,0,0,1,6.387-2.68,9.585,9.585,0,0,1,7.236,3.939l71.067,96.154,108.453,146.558,72.262,97.647A10.954,10.954,0,0,1-332.838,879.247Z" transform="translate(1.145 1.654)" fill="none" stroke="#35aee1" stroke-miterlimit="10" stroke-width="1"/>
    <path id="Path_9603" data-name="Path 9603" d="M-522.119,834.77c3.869-3.422,4.29-9.825.956-14.313l-66.22-89.444c-.224-.293-.452-.576-.7-.849a9.45,9.45,0,0,0-6.635-3.217,8.276,8.276,0,0,0-6.5,2.789L-739.57,882.319A9.534,9.534,0,0,0-741,884.4a11.425,11.425,0,0,0,3.832,14.332l106.342,70.25-1.445-55.669-.545-20.121a9.814,9.814,0,0,1,5.337-9.307l103.27-47.763a8.284,8.284,0,0,0,2.089-1.353m195.97,45.893c2.243,5.256.314,11.272-4.327,13.439l-101.5,46.86-72.661,33.549a9.676,9.676,0,0,0-5.339,9.237l2.093,77.289a9.559,9.559,0,0,1-5.229,9.074l-109.284,50.464a8.3,8.3,0,0,1-3.719.767,9.779,9.779,0,0,1-5.33-1.976l-4.839-3.186-197.3-130.319-99.238-65.6a10.5,10.5,0,0,1-1.968-1.7c-3.709-4.118-3.874-10.571-.366-14.419l262.127-288.935,75.984-83.823a8.792,8.792,0,0,1,6.488-2.722,9.739,9.739,0,0,1,7.35,4l72.187,97.67L-400.848,779.2l73.4,99.186A11.141,11.141,0,0,1-326.149,880.663Z" transform="translate(0.764 1.103)" fill="none" stroke="#30b3e0" stroke-miterlimit="10" stroke-width="1"/>
    <path id="Path_9604" data-name="Path 9604" d="M-518.472,835.473c3.929-3.475,4.357-9.977.97-14.534l-67.248-90.833c-.226-.3-.459-.584-.71-.862a9.593,9.593,0,0,0-6.739-3.266,8.4,8.4,0,0,0-6.6,2.833L-739.3,883.76a9.654,9.654,0,0,0-1.451,2.116,11.6,11.6,0,0,0,3.892,14.554l107.993,71.341-1.468-56.534-.553-20.434a9.966,9.966,0,0,1,5.42-9.451l104.873-48.5a8.372,8.372,0,0,0,2.121-1.375m199.012,46.605c2.278,5.338.318,11.447-4.394,13.648l-103.073,47.587-73.788,34.069a9.828,9.828,0,0,0-5.423,9.382l2.127,78.489a9.707,9.707,0,0,1-5.311,9.214l-110.98,51.247a8.416,8.416,0,0,1-3.776.779,9.927,9.927,0,0,1-5.413-2.007l-4.914-3.235L-834.763,988.91l-100.779-66.62a10.661,10.661,0,0,1-2-1.726c-3.767-4.182-3.935-10.735-.372-14.643l266.2-293.418,77.163-85.125a8.928,8.928,0,0,1,6.588-2.764,9.891,9.891,0,0,1,7.465,4.063l73.308,99.185,111.873,151.181,74.54,100.726A11.256,11.256,0,0,1-319.46,882.078Z" transform="translate(0.382 0.551)" fill="none" stroke="#2cb7e0" stroke-miterlimit="10" stroke-width="1"/>
    <g id="Group_261" data-name="Group 261" transform="translate(-943.281 520.56)">
      <path id="Path_9605" data-name="Path 9605" d="M-514.824,836.175c3.989-3.528,4.423-10.129.985-14.756L-582.116,729.2c-.229-.3-.465-.593-.72-.875a9.746,9.746,0,0,0-6.842-3.317,8.531,8.531,0,0,0-6.7,2.877L-739.026,885.2a9.817,9.817,0,0,0-1.473,2.148,11.78,11.78,0,0,0,3.952,14.776L-626.9,974.557l-1.491-57.4-.562-20.746a10.119,10.119,0,0,1,5.5-9.6l106.475-49.247a8.486,8.486,0,0,0,2.154-1.4m202.054,47.318c2.313,5.42.324,11.622-4.461,13.857l-104.648,48.314-74.918,34.59a9.981,9.981,0,0,0-5.5,9.525l2.159,79.689a9.857,9.857,0,0,1-5.391,9.356l-112.676,52.03a8.555,8.555,0,0,1-3.834.791,10.084,10.084,0,0,1-5.5-2.036l-4.989-3.285-203.42-134.365-102.32-67.639a10.755,10.755,0,0,1-2.028-1.752c-3.824-4.246-4-10.9-.377-14.865l270.263-297.9,78.342-86.427a9.064,9.064,0,0,1,6.69-2.806,10.04,10.04,0,0,1,7.577,4.125l74.429,100.7,113.583,153.491,75.679,102.265A11.463,11.463,0,0,1-312.771,883.493Z" transform="translate(943.281 -520.56)" fill="none" stroke="#27bbdf" stroke-miterlimit="10" stroke-width="1"/>
    </g>
  </g>
</svg>
