<?xml version="1.0" encoding="iso-8859-1"?>
<!-- Generator: Adobe Illustrator 19.0.0, SVG Export Plug-In . SVG Version: 6.00 Build 0)  -->
<svg version="1.1" id="Layer_1" xmlns="http://www.w3.org/2000/svg" xmlns:xlink="http://www.w3.org/1999/xlink" x="0px" y="0px"
	 viewBox="0 0 512 512" style="enable-background:new 0 0 512 512;" xml:space="preserve">
<g>
	<path style="fill:#578CAD;" d="M378.797,412.338H350.92c-1.603,0-3.157,0.196-4.656,0.537V512h40.072
		c7.415,0,13.425-6.011,13.425-13.425V433.3C399.761,421.723,390.374,412.338,378.797,412.338z"/>
	<path style="fill:#578CAD;" d="M160.77,412.338h-27.879c-11.572,0-20.955,9.379-20.96,20.951v65.285
		c0,7.414,6.01,13.425,13.425,13.425h40.073v-99.125C163.928,412.534,162.373,412.338,160.77,412.338z"/>
</g>
<path style="fill:#CAE9F7;" d="M255.846,327.261c-4.635,0-8.39-3.757-8.39-8.39V66.38c0-4.634,3.756-8.39,8.39-8.39
	c4.635,0,8.39,3.757,8.39,8.39V318.87C264.237,323.504,260.481,327.261,255.846,327.261z"/>
<g>
	<path style="fill:#90C8EC;" d="M376.96,253.865c0,11.577-9.386,20.962-20.962,20.962H155.695c-11.58,0-20.962-9.385-20.962-20.962
		v-130.43c0-11.577,9.383-20.962,20.962-20.962h200.304c11.577,0,20.962,9.385,20.962,20.962L376.96,253.865L376.96,253.865z"/>
	<path style="fill:#90C8EC;" d="M286.24,512h62.262V350.049c0-20.642-16.733-37.373-37.373-37.373H200.566
		c-20.642,0-37.374,16.733-37.374,37.373v161.95H286.24"/>
</g>
<g>
	<circle style="fill:#CAE9F7;" cx="203.866" cy="167.104" r="20.381"/>
	<circle style="fill:#CAE9F7;" cx="307.829" cy="167.104" r="20.38"/>
</g>
<g>
	<circle style="fill:#578CAD;" cx="255.26" cy="405.873" r="43.675"/>
	<circle style="fill:#578CAD;" cx="255.842" cy="33.19" r="33.189"/>
	<path style="fill:#578CAD;" d="M135.096,137.152c-27.835,0.715-50.184,23.49-50.184,51.498c0,28.007,22.35,50.781,50.184,51.497
		V137.152z"/>
</g>
<g>
	<path style="opacity:0.1;fill:#231F20;enable-background:new    ;" d="M130.292,498.575V433.29
		c0.006-11.572,9.389-20.951,20.96-20.951h-18.361c-11.572,0-20.955,9.379-20.96,20.951v65.285c0,7.414,6.01,13.425,13.425,13.425
		h18.361C136.302,512,130.292,505.989,130.292,498.575z"/>
	<path style="opacity:0.1;fill:#231F20;enable-background:new    ;" d="M153.092,253.865v-130.43
		c0-11.577,9.383-20.962,20.962-20.962h-18.361c-11.58,0-20.962,9.385-20.962,20.962v130.43c0,11.577,9.383,20.962,20.962,20.962
		h18.361C162.475,274.827,153.092,265.442,153.092,253.865z"/>
	<path style="opacity:0.1;fill:#231F20;enable-background:new    ;" d="M218.926,312.676h-18.361
		c-20.642,0-37.374,16.733-37.374,37.373v161.95h18.361v-161.95C181.552,329.409,198.284,312.676,218.926,312.676z"/>
	<path style="opacity:0.1;fill:#231F20;enable-background:new    ;" d="M229.953,405.876c0-20.968,14.783-38.479,34.491-42.697
		c-2.96-0.633-6.031-0.974-9.18-0.974c-24.119,0-43.672,19.553-43.672,43.672c0,24.119,19.554,43.671,43.672,43.671
		c3.149,0,6.22-0.341,9.18-0.974C244.735,444.353,229.953,426.844,229.953,405.876z"/>
	<path style="opacity:0.1;fill:#231F20;enable-background:new    ;" d="M241.018,33.19c0-15.143,10.146-27.91,24.009-31.894
		C262.11,0.459,259.032,0,255.846,0c-18.331,0-33.189,14.861-33.189,33.19c0,18.33,14.858,33.19,33.189,33.19
		c3.186,0,6.264-0.459,9.18-1.297C251.164,61.1,241.018,48.335,241.018,33.19z"/>
	<path style="opacity:0.1;fill:#231F20;enable-background:new    ;" d="M103.271,188.651c0-21.362,10.899-40.159,27.427-51.185
		c-25.753,2.857-45.787,24.669-45.787,51.185c0,26.515,20.034,48.327,45.788,51.185C114.17,228.809,103.271,210.011,103.271,188.651
		z"/>
</g>
<path style="fill:#578CAD;" d="M376.906,137.152c27.835,0.715,50.184,23.49,50.184,51.498c0,28.007-22.35,50.781-50.184,51.497
	V137.152z"/>
<path style="fill:#CAE9F7;" d="M253.479,250.611c-18.244,0-34.031-12.357-38.391-30.052c-1.109-4.5,1.64-9.046,6.138-10.155
	c4.5-1.109,9.046,1.64,10.155,6.138c2.508,10.179,11.596,17.288,22.098,17.288c10.456,0,19.534-7.069,22.078-17.19
	c1.13-4.495,5.688-7.222,10.183-6.091c4.494,1.129,7.221,5.689,6.091,10.183C287.41,238.324,271.638,250.611,253.479,250.611z"/>
<g>
</g>
<g>
</g>
<g>
</g>
<g>
</g>
<g>
</g>
<g>
</g>
<g>
</g>
<g>
</g>
<g>
</g>
<g>
</g>
<g>
</g>
<g>
</g>
<g>
</g>
<g>
</g>
<g>
</g>
</svg>
